{
  "accessors": [
    {
      "bufferView": 2,
      "componentType": 5126,
      "count": 732,
      "max": [
        0.1352636069059372,
        0.16527345776557922,
        0.10578801482915878
      ],
      "min": [
        -3.0525858402252197,
        -2.8713953495025635,
        -0.16475988924503326
      ],
      "type": "VEC3"
    },
    {
      "bufferView": 2,
      "byteOffset": 8784,
      "componentType": 5126,
      "count": 732,
      "type": "VEC3"
    },
    {
      "bufferView": 1,
      "componentType": 5126,
      "count": 732,
      "type": "VEC2"
    },
    {
      "bufferView": 0,
      "componentType": 5125,
      "count": 930,
      "type": "SCALAR"
    },
    {
      "bufferView": 2,
      "byteOffset": 17568,
      "componentType": 5126,
      "count": 1048,
      "max": [
        0.13526363670825958,
        0.16527345776557922,
        0.10578801482915878
      ],
      "min": [
        -3.062225341796875,
        -2.8713953495025635,
        -0.16475988924503326
      ],
      "type": "VEC3"
    },
    {
      "bufferView": 2,
      "byteOffset": 30144,
      "componentType": 5126,
      "count": 1048,
      "type": "VEC3"
    },
    {
      "bufferView": 1,
      "byteOffset": 5856,
      "componentType": 5126,
      "count": 1048,
      "type": "VEC2"
    },
    {
      "bufferView": 0,
      "byteOffset": 3720,
      "componentType": 5125,
      "count": 1392,
      "type": "SCALAR"
    },
    {
      "bufferView": 2,
      "byteOffset": 42720,
      "componentType": 5126,
      "count": 1308,
      "max": [
        0.13526363670825958,
        0.16527345776557922,
        0.10578801482915878
      ],
      "min": [
        -3.062225341796875,
        -2.8713953495025635,
        -0.16475988924503326
      ],
      "type": "VEC3"
    },
    {
      "bufferView": 2,
      "byteOffset": 58416,
      "componentType": 5126,
      "count": 1308,
      "type": "VEC3"
    },
    {
      "bufferView": 1,
      "byteOffset": 14240,
      "componentType": 5126,
      "count": 1308,
      "type": "VEC2"
    },
    {
      "bufferView": 0,
      "byteOffset": 9288,
      "componentType": 5125,
      "count": 1860,
      "type": "SCALAR"
    }
  ],
  "asset": {
    "generator": "fab-model-conversion",
    "version": "2.0"
  },
  "bufferViews": [
    {
      "buffer": 0,
      "byteLength": 16728,
      "target": 34963
    },
    {
      "buffer": 0,
      "byteLength": 24704,
      "byteOffset": 16728,
      "byteStride": 8,
      "target": 34962
    },
    {
      "buffer": 0,
      "byteLength": 74112,
      "byteOffset": 41432,
      "byteStride": 12,
      "target": 34962
    }
  ],
  "buffers": [
    {
      "byteLength": 115544,
      "uri": "scene.bin"
    }
  ],
  "materials": [
    {
      "doubleSided": true,
      "name": "Transylvania_Main_Text",
      "pbrMetallicRoughness": {
        "baseColorFactor": [
          0.800000012,
          0.800000012,
          0.800000012,
          1.0
        ],
        "metallicFactor": 0.0,
        "roughnessFactor": 0.957705021
      }
    }
  ],
  "meshes": [
    {
      "name": "EA_Tr_adv_sign_01a_LOD2_Transylvania_Main_Text_0",
      "primitives": [
        {
          "attributes": {
            "NORMAL": 1,
            "POSITION": 0,
            "TEXCOORD_0": 2
          },
          "indices": 3,
          "material": 0,
          "mode": 4
        }
      ]
    },
    {
      "name": "EA_Tr_adv_sign_01a_LOD1_Transylvania_Main_Text_0",
      "primitives": [
        {
          "attributes": {
            "NORMAL": 5,
            "POSITION": 4,
            "TEXCOORD_0": 6
          },
          "indices": 7,
          "material": 0,
          "mode": 4
        }
      ]
    },
    {
      "name": "EA_Tr_adv_sign_01a_LOD0_Transylvania_Main_Text_0",
      "primitives": [
        {
          "attributes": {
            "NORMAL": 9,
            "POSITION": 8,
            "TEXCOORD_0": 10
          },
          "indices": 11,
          "material": 0,
          "mode": 4
        }
      ]
    }
  ],
  "nodes": [
    {
      "children": [
        1
      ],
      "matrix": [
        1.0,
        0.0,
        0.0,
        0.0,
        0.0,
        2.220446049250313e-16,
        -1.0,
        0.0,
        0.0,
        1.0,
        2.220446049250313e-16,
        0.0,
        0.0,
        0.0,
        0.0,
        1.0
      ],
      "name": "FAB converted model"
    },
    {
      "children": [
        2
      ],
      "matrix": [
        1.0,
        0.0,
        0.0,
        0.0,
        0.0,
        0.0,
        1.0,
        0.0,
        0.0,
        -1.0,
        0.0,
        0.0,
        0.0,
        0.0,
        0.0,
        1.0
      ],
      "name": "EA_Tr_adv_sign_01a.fbx"
    },
    {
      "children": [
        3,
        5,
        7
      ],
      "name": "RootNode"
    },
    {
      "children": [
        4
      ],
      "name": "EA_Tr_adv_sign_01a_LOD2"
    },
    {
      "mesh": 0,
      "name": "EA_Tr_adv_sign_01a_LOD2_Transylvania_Main_Text_0"
    },
    {
      "children": [
        6
      ],
      "name": "EA_Tr_adv_sign_01a_LOD1"
    },
    {
      "mesh": 1,
      "name": "EA_Tr_adv_sign_01a_LOD1_Transylvania_Main_Text_0"
    },
    {
      "children": [
        8
      ],
      "name": "EA_Tr_adv_sign_01a_LOD0"
    },
    {
      "mesh": 2,
      "name": "EA_Tr_adv_sign_01a_LOD0_Transylvania_Main_Text_0"
    }
  ],
  "scene": 0,
  "scenes": [
    {
      "name": "FAB converted",
      "nodes": [
        0
      ]
    }
  ]
}
